<svg xmlns="http://www.w3.org/2000/svg"
     viewBox="0 0 32.653 28.394">
  <g transform="translate(-15.433 -15.433)">
    <path d="M62.145,34.366a1.42,1.42,0,0,1,2.01,0l8.517,8.517a1.42,1.42,0,0,1,0,2.01l-8.517,8.517a1.421,1.421,0,0,1-2.01-2.01l7.514-7.513-7.515-7.513a1.42,1.42,0,0,1,0-2.01Z"
          transform="translate(-25.003 -10)"
          fill-rule="evenodd" />
    <path d="M16.853,15.433a1.42,1.42,0,0,0-1.42,1.42V28.209a7.1,7.1,0,0,0,7.1,7.1H46.664a1.42,1.42,0,1,0,0-2.839H22.531a4.259,4.259,0,0,1-4.259-4.259V16.853A1.42,1.42,0,0,0,16.853,15.433Z"
          fill-rule="evenodd" />
  </g>
</svg>