<svg xmlns="http://www.w3.org/2000/svg"
     viewBox="0 0 42.471 28.838">
  <path id="mysql"
        d="M29.032,8.959a1.923,1.923,0,0,0-.485.059V9.04h.025a4.045,4.045,0,0,0,.379.484c.1.19.177.379.273.566l.025-.026a.659.659,0,0,0,.248-.59c-.071-.084-.081-.166-.142-.248-.071-.119-.223-.177-.319-.27ZM10.211,32.308H8.57Q8.5,28.4,8.092,24.5H8.078l-2.5,7.8H4.336L1.858,24.5H1.84q-.29,3.9-.344,7.8H0q.147-5.219.726-9.786H2.761l2.362,7.192h.014l2.384-7.192H9.46q.642,5.348.757,9.786Zm7.109-7.22q-1,5.428-2.64,7.893a3.516,3.516,0,0,1-2.8,1.9,2.765,2.765,0,0,1-1-.244V33.76a4.465,4.465,0,0,0,.683.046,1.651,1.651,0,0,0,1.146-.393,1.428,1.428,0,0,0,.523-1.07,7.074,7.074,0,0,0-.407-1.671l-1.8-5.585h1.61l1.287,4.176a5.574,5.574,0,0,1,.362,1.987,26.962,26.962,0,0,0,1.477-6.163h1.557Zm21.811,7.22H34.477V22.522h1.567V31.1h3.089Zm-5.875.239-1.8-.885a3.9,3.9,0,0,0,.452-.442,6,6,0,0,0,1.147-3.988q0-4.858-3.813-4.86a3.63,3.63,0,0,0-2.92,1.233,6.008,6.008,0,0,0-1.143,3.974A5.8,5.8,0,0,0,26.2,31.366,3.479,3.479,0,0,0,29,32.454a4.513,4.513,0,0,0,1.282-.173l2.344,1.366.637-1.1Zm-5.826-2.2a6.006,6.006,0,0,1-.6-3.072q0-3.7,2.247-3.7a1.894,1.894,0,0,1,1.73.885,5.987,5.987,0,0,1,.595,3.05q0,3.727-2.247,3.73a1.893,1.893,0,0,1-1.731-.885ZM24.5,29.6a2.593,2.593,0,0,1-.913,2.046,3.589,3.589,0,0,1-2.449.8,4.907,4.907,0,0,1-2.783-.911l.419-.842a4.746,4.746,0,0,0,2.106.58,2.212,2.212,0,0,0,1.386-.389,1.334,1.334,0,0,0,.531-1.088c0-.584-.407-1.08-1.147-1.5-.687-.378-2.058-1.163-2.058-1.163a2.343,2.343,0,0,1-1.118-2.084,2.425,2.425,0,0,1,.832-1.92,3.136,3.136,0,0,1,2.159-.734,4.442,4.442,0,0,1,2.478.726l-.378.842a4.824,4.824,0,0,0-1.883-.407,1.667,1.667,0,0,0-1.157.365,1.213,1.213,0,0,0-.439.927c0,.58.414,1.08,1.179,1.5.7.381,2.1,1.186,2.1,1.186A2.306,2.306,0,0,1,24.507,29.6ZM41.1,19.242a5.432,5.432,0,0,0-2.3.333c-.177.071-.46.071-.485.3.1.094.112.248.195.379a2.694,2.694,0,0,0,.612.72c.248.195.5.382.755.549.46.283.983.452,1.433.736.256.166.519.378.779.555.129.088.212.248.379.3v-.035c-.081-.106-.106-.26-.186-.379-.119-.119-.237-.225-.354-.341a5.7,5.7,0,0,0-1.229-1.2c-.379-.258-1.207-.619-1.363-1.052l-.022-.025a4.707,4.707,0,0,0,.814-.188c.4-.106.769-.084,1.186-.188.188-.048.378-.106.566-.166v-.106c-.212-.212-.372-.5-.591-.7a15.693,15.693,0,0,0-1.954-1.456c-.372-.237-.842-.389-1.233-.591-.142-.071-.379-.106-.46-.225a4.6,4.6,0,0,1-.487-.91q-.522-1.011-.969-2.058a12.252,12.252,0,0,0-.6-1.351,11.915,11.915,0,0,0-4.576-4.424A5.763,5.763,0,0,0,29.5,7.239c-.3-.014-.591-.035-.885-.048a4.4,4.4,0,0,1-.549-.415c-.672-.425-2.414-1.345-2.909-.127-.319.768.473,1.525.747,1.915a5.393,5.393,0,0,1,.6.885c.084.205.106.415.19.63a14.105,14.105,0,0,0,.613,1.587,5.356,5.356,0,0,0,.437.73c.1.129.258.19.3.4a3.445,3.445,0,0,0-.273.885,5.242,5.242,0,0,0,.343,3.982c.19.294.641.945,1.243.7.531-.212.414-.885.566-1.477.035-.142.013-.236.085-.33v.026c.166.333.333.649.485.983a6.681,6.681,0,0,0,1.534,1.584c.283.212.507.58.861.711v-.035h-.026a1.632,1.632,0,0,0-.273-.236,6.1,6.1,0,0,1-.619-.708,15.5,15.5,0,0,1-1.323-2.155c-.195-.372-.357-.772-.513-1.138-.071-.142-.071-.354-.19-.425a4.432,4.432,0,0,0-.566.8,6.737,6.737,0,0,0-.333,1.787c-.048.013-.025,0-.048.025-.379-.092-.507-.485-.649-.814a5.13,5.13,0,0,1-.106-3.158c.084-.248.437-1.03.3-1.267-.074-.225-.308-.354-.437-.537a4.385,4.385,0,0,1-.425-.755c-.283-.662-.425-1.395-.733-2.056a6.2,6.2,0,0,0-.591-.908,5.9,5.9,0,0,1-.651-.92c-.059-.129-.142-.343-.048-.485a.2.2,0,0,1,.166-.159c.156-.127.593.039.747.11a6.086,6.086,0,0,1,1.172.591c.166.117.344.341.558.4h.248c.379.084.8.025,1.16.129a7.572,7.572,0,0,1,1.7.814A10.536,10.536,0,0,1,35.09,12.8c.142.273.2.523.333.8.248.584.555,1.174.8,1.738a7.7,7.7,0,0,0,.842,1.587c.177.248.888.378,1.207.506a8.691,8.691,0,0,1,.814.333c.407.248.8.531,1.186.8.195.134.783.429.82.669Z"
        transform="translate(0 -6.041)" />
</svg>