<svg xmlns="http://www.w3.org/2000/svg"
     viewBox="0 0 22.5 36">
  <path d="M24.75,2.25H11.25A2.25,2.25,0,0,0,9,4.5v27a2.25,2.25,0,0,0,2.25,2.25h13.5A2.25,2.25,0,0,0,27,31.5V4.5A2.25,2.25,0,0,0,24.75,2.25ZM11.25,0a4.5,4.5,0,0,0-4.5,4.5v27a4.5,4.5,0,0,0,4.5,4.5h13.5a4.5,4.5,0,0,0,4.5-4.5V4.5A4.5,4.5,0,0,0,24.75,0Z"
        transform="translate(-6.75)"
        fill-rule="evenodd" />
  <path d="M18,31.5a2.25,2.25,0,1,0-2.25-2.25A2.25,2.25,0,0,0,18,31.5Z"
        transform="translate(-6.75)"
        fill-rule="evenodd" />
</svg>