<svg xmlns="http://www.w3.org/2000/svg"
     viewBox="0 0 800 346.1">
  <path d="M281.63,303.61H202.11V120.18h-.73l-61.29,81.7-59.75-81.7h-.82V303.61H0V.23H75.44l64.65,89.13L206.19.23h75.44Z" />
  <path d="M564.89,303.61H485.37v-96.2H398.5q.64,46.6,30.47,96.2l-64.56,42.71a290.49,290.49,0,0,1-25.34-46.92,275.86,275.86,0,0,1-16.28-51.32,251.87,251.87,0,0,1-5.62-52.55,243.2,243.2,0,0,1,5.89-53.45,208.29,208.29,0,0,1,18.14-50,168.19,168.19,0,0,1,30.64-42.17q20.22-20.4,43.3-31.23A174.47,174.47,0,0,1,463.24,4q25-3.8,57.48-3.8h39l18.6,68.36H515.92q-38.8,0-61.25,11.14t-31.37,24.9q-8.93,13.77-17,34.42h79.07V77.93h79.52Z" />
  <path d="M695.64,235.25H800l-18.6,68.36H616.12V.23h79.52Z" />
</svg>