<svg width="60" height="25" viewBox="0 0 60 25" fill="none" xmlns="http://www.w3.org/2000/svg">
<path d="M20.6825 0.337013V21.3945L15.425 21.387V8.34701L10.35 14.357L5.3775 8.21201L5.3275 21.4245H0.0025L0 0.337013H5.5075L10.17 6.69951L15.2075 0.334512L20.6825 0.337013ZM42.2525 5.50951L42.315 21.347H36.4025L36.3825 14.1695H29.3825C29.5575 15.417 29.9075 17.3345 30.425 18.617C30.8125 19.5695 31.17 20.4945 31.8825 21.437L27.62 24.2495C26.7475 22.6595 26.065 20.907 25.425 19.0445C24.7847 17.2863 24.3592 15.4572 24.1575 13.597C23.945 11.722 23.915 9.91951 24.425 8.06701C24.9263 6.26638 25.9337 4.64736 27.3275 3.40201C28.11 2.66951 29.2 2.15201 30.0775 1.68451C30.955 1.21701 31.935 1.02451 32.845 0.787012C33.8234 0.553879 34.8192 0.400873 35.8225 0.329512C36.8175 0.244512 38.59 0.164512 41.7975 0.259512L43.16 4.63201H36.275C34.7925 4.65201 34.08 4.63451 32.9225 5.15451C32.004 5.58874 31.2213 6.26505 30.6583 7.11077C30.0954 7.95649 29.7736 8.93962 29.7275 9.95451L36.385 10.037L36.48 5.51201L42.2525 5.50951ZM52.2325 0.262012V16.8295L60 16.9095L58.925 21.347H46.9075V0.187012L52.2325 0.262012Z" fill="white"/>
</svg>
