<svg width="60" height="60" viewBox="0 0 60 60" fill="none" xmlns="http://www.w3.org/2000/svg">
<path d="M30.3 60C26.1 60 22.163 59.2 18.489 57.6C14.815 56 11.615 53.838 8.889 51.114C6.163 48.388 4 45.188 2.4 41.514C0.8 37.84 0 33.902 0 29.7C0 22.4 2.325 15.963 6.975 10.389C11.625 4.815 17.55 1.352 24.75 0C23.85 4.95 24.125 9.788 25.575 14.514C27.025 19.24 29.525 23.377 33.075 26.925C36.625 30.475 40.763 32.975 45.489 34.425C50.215 35.875 55.052 36.15 60 35.25C58.7 42.45 55.25 48.375 49.65 53.025C44.05 57.675 37.6 60 30.3 60Z" fill="black"/>
</svg>
