<svg width="60" height="60" viewBox="0 0 60 60" fill="none" xmlns="http://www.w3.org/2000/svg">
<path d="M33.084 0C36.4589 0.00899954 38.1718 0.0269986 39.6507 0.0689965L40.2327 0.0899953C40.9046 0.113994 41.5676 0.143992 42.3686 0.179991C45.5604 0.329983 47.7383 0.833958 49.6492 1.57492C51.6291 2.33688 53.297 3.36883 54.9649 5.03374C56.4903 6.53335 57.6706 8.34734 58.4237 10.3495C59.1647 12.2604 59.6687 14.4383 59.8187 17.6331C59.8547 18.4311 59.8847 19.094 59.9087 19.769L59.9267 20.351C59.9717 21.8269 59.9897 23.5398 59.9957 26.9146L59.9987 29.1525V33.0823C60.006 35.2704 59.983 37.4585 59.9297 39.646L59.9117 40.2279C59.8877 40.9029 59.8577 41.5659 59.8217 42.3638C59.6717 45.5587 59.1617 47.7336 58.4237 49.6475C57.6728 51.6507 56.4922 53.4651 54.9649 54.9632C53.4649 56.4881 51.651 57.6683 49.6492 58.422C47.7383 59.163 45.5604 59.6669 42.3686 59.8169C41.6567 59.8505 40.9448 59.8805 40.2327 59.9069L39.6507 59.9249C38.1718 59.9669 36.4589 59.9879 33.084 59.9939L30.8462 59.9969H26.9194C24.7302 60.0045 22.5412 59.9815 20.3527 59.9279L19.7707 59.9099C19.0586 59.883 18.3466 59.852 17.6348 59.8169C14.443 59.6669 12.2651 59.163 10.3512 58.422C8.34931 57.6702 6.53605 56.4897 5.03847 54.9632C3.51169 53.4641 2.33028 51.65 1.57665 49.6475C0.835688 47.7366 0.331714 45.5587 0.181722 42.3638C0.1483 41.652 0.118301 40.94 0.0917262 40.2279L0.0767274 39.646C0.0214463 37.4585 -0.00355507 35.2704 0.00173091 33.0823V26.9146C-0.00664156 24.7265 0.0153597 22.5384 0.0677278 20.351L0.0887266 19.769C0.112725 19.094 0.142724 18.4311 0.178722 17.6331C0.328714 14.4383 0.832688 12.2634 1.57365 10.3495C2.32695 8.34529 3.51071 6.53074 5.04147 5.03374C6.53867 3.50824 8.35073 2.32784 10.3512 1.57492C12.2651 0.833958 14.44 0.329983 17.6348 0.179991C18.4328 0.143992 19.0988 0.113994 19.7707 0.0899953L20.3527 0.0719961C22.5402 0.0186972 24.7283 -0.00430387 26.9164 0.00299963L33.084 0ZM30.0002 14.9992C26.0222 14.9992 22.207 16.5795 19.3941 19.3924C16.5812 22.2053 15.001 26.0204 15.001 29.9985C15.001 33.9765 16.5812 37.7916 19.3941 40.6045C22.207 43.4174 26.0222 44.9977 30.0002 44.9977C33.9782 44.9977 37.7934 43.4174 40.6063 40.6045C43.4192 37.7916 44.9994 33.9765 44.9994 29.9985C44.9994 26.0204 43.4192 22.2053 40.6063 19.3924C37.7934 16.5795 33.9782 14.9992 30.0002 14.9992ZM30.0002 20.9989C31.182 20.9987 32.3523 21.2313 33.4443 21.6834C34.5362 22.1355 35.5284 22.7982 36.3643 23.6338C37.2001 24.4693 37.8632 25.4613 38.3156 26.5531C38.7681 27.6449 39.001 28.8151 39.0012 29.997C39.0014 31.1788 38.7688 32.3491 38.3168 33.4411C37.8647 34.533 37.2019 35.5252 36.3664 36.361C35.5308 37.1969 34.5389 37.8599 33.4471 38.3124C32.3553 38.7648 31.185 38.9978 30.0032 38.998C27.6164 38.998 25.3273 38.0498 23.6396 36.3621C21.9518 34.6744 21.0037 32.3853 21.0037 29.9985C21.0037 27.6116 21.9518 25.3226 23.6396 23.6348C25.3273 21.9471 27.6164 20.9989 30.0032 20.9989M45.7524 10.4995C44.7579 10.4995 43.8041 10.8945 43.1009 11.5978C42.3977 12.301 42.0026 13.2548 42.0026 14.2493C42.0026 15.2438 42.3977 16.1976 43.1009 16.9008C43.8041 17.604 44.7579 17.9991 45.7524 17.9991C46.7469 17.9991 47.7007 17.604 48.4039 16.9008C49.1071 16.1976 49.5022 15.2438 49.5022 14.2493C49.5022 13.2548 49.1071 12.301 48.4039 11.5978C47.7007 10.8945 46.7469 10.4995 45.7524 10.4995Z" fill="white"/>
</svg>
