<svg width="160" height="91" viewBox="0 0 160 91" fill="none" xmlns="http://www.w3.org/2000/svg">
<path d="M77.8 68.7126C74.6426 73.6752 71.6132 78.53 64.8252 83.2464C61.1942 85.7916 52.8368 90.7645 40.9574 90.7645C18.2932 90.7645 0 74.2871 0 45.3181C0 20 17.2081 0 41.4406 0C51.2581 0 59.9806 3.39387 66.4042 8.48516C72.3442 13.211 75.1261 17.9381 77.5535 22.1806L60.5923 30.6558C59.3787 27.8732 57.9181 24.9626 54.1687 21.8152C50.0448 18.5394 45.93 17.5726 42.4074 17.5726C28.5942 17.5726 21.3223 30.4194 21.3223 44.7161C21.3223 63.5026 30.9029 72.8268 42.4074 72.8268C53.5568 72.8268 58.0461 65.0713 60.9474 60.1087L77.8 68.7126ZM137.217 2.66419H160L130.311 88.219H108.505L79.1813 2.66419H101.964L119.655 63.5029L137.217 2.66419Z" fill="white"/>
</svg>
