<svg width="60" height="60" viewBox="0 0 60 60" fill="none" xmlns="http://www.w3.org/2000/svg">
<path d="M30 46.3636C25.6601 46.3636 21.4979 44.6396 18.4292 41.5708C15.3604 38.5021 13.6364 34.3399 13.6364 30C13.6364 25.6601 15.3604 21.4979 18.4292 18.4292C21.4979 15.3604 25.6601 13.6364 30 13.6364C34.3399 13.6364 38.5021 15.3604 41.5708 18.4292C44.6396 21.4979 46.3636 25.6601 46.3636 30C46.3636 34.3399 44.6396 38.5021 41.5708 41.5708C38.5021 44.6396 34.3399 46.3636 30 46.3636ZM27.2727 0H32.7273V8.18182H27.2727V0ZM27.2727 51.8182H32.7273V60H27.2727V51.8182ZM6.85909 10.7155L10.7155 6.85909L16.5 12.6436L12.6436 16.5L6.85909 10.7155ZM43.5 47.3564L47.3564 43.5L53.1409 49.2845L49.2845 53.1409L43.5 47.3564ZM49.2845 6.85636L53.1409 10.7155L47.3564 16.5L43.5 12.6436L49.2845 6.85636ZM12.6436 43.5L16.5 47.3564L10.7155 53.1409L6.85909 49.2845L12.6436 43.5ZM60 27.2727V32.7273H51.8182V27.2727H60ZM8.18182 27.2727V32.7273H0V27.2727H8.18182Z" fill="black"/>
</svg>
