<svg width="60" height="49" viewBox="0 0 60 49" fill="none" xmlns="http://www.w3.org/2000/svg">
<path d="M60 5.73614C57.7916 6.73996 55.4111 7.39962 52.9446 7.71511C55.4685 6.19503 57.4187 3.78585 58.3365 0.889101C55.956 2.32314 53.3174 3.32696 50.5354 3.90057C48.2696 1.43403 45.086 0 41.4723 0C34.7323 0 29.2256 5.50669 29.2256 12.304C29.2256 13.2792 29.3403 14.2256 29.5411 15.1147C19.3308 14.5985 10.239 9.69407 4.18738 2.26577C3.1262 4.07266 2.5239 6.19503 2.5239 8.43212C2.5239 12.7055 4.67495 16.4914 8.00191 18.6424C5.96558 18.6424 4.07266 18.0688 2.40918 17.2084V17.2945C2.40918 23.26 6.65392 28.2505 12.2753 29.369C10.4705 29.8629 8.5758 29.9317 6.73996 29.5698C7.51895 32.0148 9.04456 34.1541 11.1023 35.6872C13.1601 37.2202 15.6466 38.0699 18.2122 38.1166C13.8632 41.5596 8.47227 43.4206 2.92543 43.3939C1.95029 43.3939 0.975144 43.3365 0 43.2218C5.44933 46.7208 11.9312 48.7572 18.8719 48.7572C41.4723 48.7572 53.891 30 53.891 13.7381C53.891 13.1931 53.891 12.6769 53.8623 12.1319C56.2715 10.4111 58.3365 8.23136 60 5.73614Z" fill="white"/>
</svg>
