<svg width="60" height="57" viewBox="0 0 60 57" fill="none" xmlns="http://www.w3.org/2000/svg">
<path d="M12.5918 6.29906C12.591 7.96884 11.9269 9.56989 10.7456 10.75C9.56426 11.9301 7.96254 12.5927 6.29276 12.5918C4.62298 12.591 3.02192 11.9269 1.8418 10.7456C0.661682 9.56426 -0.000834101 7.96254 7.88126e-07 6.29276C0.000835677 4.62298 0.664953 3.02192 1.84626 1.8418C3.02756 0.661682 4.62928 -0.000834101 6.29906 7.88126e-07C7.96884 0.000835677 9.56989 0.664953 10.75 1.84626C11.9301 3.02756 12.5927 4.62928 12.5918 6.29906ZM12.7807 17.2539H0.188878V56.6663H12.7807V17.2539ZM32.6758 17.2539H20.1469V56.6663H32.5498V35.9843C32.5498 24.4628 47.5656 23.3924 47.5656 35.9843V56.6663H60V31.703C60 12.2802 37.7754 13.0042 32.5498 22.5425L32.6758 17.2539Z" fill="white"/>
</svg>
