<svg width="152" height="160" viewBox="0 0 152 160" fill="none" xmlns="http://www.w3.org/2000/svg">
<path d="M40.154 2.63608C46.1558 4.6692 51.8654 7.47967 57.1371 10.9958C64.5824 9.09295 72.238 8.13701 79.9225 8.15061C87.8587 8.15061 95.5151 9.14163 102.692 10.9878C107.962 7.47509 113.669 4.66733 119.667 2.63608C125.238 0.741962 133.174 -2.32699 137.889 2.89183C141.086 6.44031 141.885 12.3864 142.452 16.9259C143.092 21.9929 143.244 28.5943 141.565 35.1478C147.983 43.4356 151.851 53.3218 151.851 64.0951C151.851 80.4149 143.012 94.5849 129.929 104.399C123.633 109.063 116.649 112.719 109.229 115.236C110.94 119.153 111.891 123.484 111.891 128.032V152.008C111.891 154.128 111.049 156.16 109.55 157.659C108.051 159.158 106.018 160 103.899 160H55.9463C53.8267 160 51.7939 159.158 50.2951 157.659C48.7963 156.16 47.9543 154.128 47.9543 152.008V144.088C40.3218 145.023 33.9202 144.192 28.4776 141.882C22.7872 139.468 18.8232 135.728 15.8421 132.148C13.0129 128.759 9.92798 121.119 5.46841 119.632C4.4724 119.3 3.55147 118.776 2.7582 118.088C1.96492 117.401 1.31485 116.564 0.845076 115.625C-0.103667 113.729 -0.260374 111.534 0.409429 109.522C1.07923 107.511 2.52067 105.847 4.41666 104.899C6.31265 103.95 8.50787 103.793 10.5194 104.463C15.8421 106.237 19.3107 110.074 21.6843 113.158C25.5205 118.114 28.6374 124.587 34.7114 127.169C37.2129 128.232 40.8813 128.927 46.6196 128.144L47.9543 127.872C47.9695 123.523 48.8752 119.222 50.6156 115.236C43.1957 112.719 36.2124 109.063 29.9162 104.399C16.8331 94.5849 7.9939 80.4229 7.9939 64.0951C7.9939 53.3378 11.8541 43.4596 18.2557 35.1798C16.5774 28.6263 16.7212 22.0089 17.3606 16.9339L17.4006 16.6302C17.984 11.9788 18.6633 6.50425 21.9241 2.89183C26.6394 -2.32699 34.5835 0.749955 40.146 2.64408L40.154 2.63608Z" fill="white"/>
</svg>
